HIERARCHY
ROOT pelvis
{
  OFFSET 0 100 0
  CHANNELS 6 Xposition Yposition Zposition Zrotation Xrotation Yrotation
  JOINT pelvis_right_femur
  {
    OFFSET -10.78128 -3.44521 -0.5502486
    CHANNELS 3 Zrotation Xrotation Yrotation
    JOINT right_femur_tibia
    {
      OFFSET -0.8047443 -44.0398 -0.1307829
      CHANNELS 3 Zrotation Xrotation Yrotation
      JOINT right_tibia_foot
      {
        OFFSET 3.006224 -47.83518 -5
        CHANNELS 3 Zrotation Xrotation Yrotation
        End Site
        {
          OFFSET 0 -5 15
        }
      }
    }
  }
  JOINT pelvis_left_femur
  {
    OFFSET 10.78128 -3.44521 -0.5502486
    CHANNELS 3 Zrotation Xrotation Yrotation
    JOINT left_femur_tibia
    {
      OFFSET 0.8047443 -44.0398 -0.1307829
      CHANNELS 3 Zrotation Xrotation Yrotation
      JOINT left_tibia_foot
      {
        OFFSET -4.370144 -48.10324 -4.275266
        CHANNELS 3 Zrotation Xrotation Yrotation
        End Site
        {
          OFFSET 0 -5 15
        }
      }
    }
  }
  JOINT pelvis_spine1
  {
    OFFSET 0 6.468898 -3.129235
    CHANNELS 3 Zrotation Xrotation Yrotation
    JOINT spine1
    {
      OFFSET 0 23.15396 4.99043
      CHANNELS 3 Zrotation Xrotation Yrotation
      JOINT spine2
      {
        OFFSET 0 20.79997 -5.064912
        CHANNELS 3 Zrotation Xrotation Yrotation
        JOINT neck
        {
          OFFSET 0 14.38658 9.616178
          CHANNELS 3 Zrotation Xrotation Yrotation
          End Site
          {
            OFFSET 0 20 0
          }
        }
      }
      JOINT right_manubrium
      {
        OFFSET -5.722621 16.35077 3.967754
        CHANNELS 3 Zrotation Xrotation Yrotation
        JOINT right_clavicle
        {
          OFFSET -13.16364 1.694482 -4.693211
          CHANNELS 3 Zrotation Xrotation Yrotation
          JOINT right_humerus
          {
            OFFSET -28.5034 -0.3100689 -2.792744
            CHANNELS 3 Zrotation Xrotation Yrotation
            JOINT right_radius
            {
              OFFSET -25.15693 0.02248979 -1.271978
              CHANNELS 3 Zrotation Xrotation Yrotation
              End Site
              {
                OFFSET -15 0 0
              }
            }
          }
        }
      }
      JOINT left_manubrium
      {
        OFFSET 5.722621 16.35077 3.967754
        CHANNELS 3 Zrotation Xrotation Yrotation
        JOINT left_clavicle
        {
          OFFSET 13.16364 1.694482 -4.693211
          CHANNELS 3 Zrotation Xrotation Yrotation
          JOINT left_humerus
          {
            OFFSET 29.39168 -1.063119 -2.237045
            CHANNELS 3 Zrotation Xrotation Yrotation
            JOINT left_radius
            {
              OFFSET 24.59957 -0.9528479 0.9047498
              CHANNELS 3 Zrotation Xrotation Yrotation
              End Site
              {
                OFFSET 15 -0 -0
              }
            }
          }
        }
      }
    }
  }
}
MOTION
Frames: 17
Frame Time: 0.0416666666667
34.30358 100.0651 247.9503 2.248555 -8.592656 -4.615571 -0.6333189 23.23468 7.950186 -0 15.49586 -0 7.43147 -14.99193 0.3250446 -0.9373628 -25.80787 -5.744846 -0 28.5978 -0 -7.508513 -5.983249 20.01347 -1.570406 -0.6068533 9.998639 -1.805459 10.02022 -2.041688 2.515469 21.80421 5.071088 1.762884 -14.66388 7.174517 1.468815 -21.61869 11.60018 79.86822 22.1936 -4.554487 -0 0 26.84289 -25.62116 14.0253 13.57656 4.665236 -14.24096 -2.851997 -93.46263 21.47445 25.55808 0 0 -11.56234 -2.883429 6.957705 16.08358
35.13388 99.6441 254.8765 2.416037 -8.524819 -4.700401 -1.462421 23.38746 7.695114 -0 21.00207 -0 8.145824 -13.70194 0.07393817 -1.972089 -24.44522 -6.798548 -0 26.76404 -0 -7.506968 -6.349642 19.60265 -1.851083 -0.9966931 9.868307 -1.969932 9.602912 -1.976634 2.607664 21.86208 5.051843 1.615071 -14.64688 7.395714 1.378139 -21.35777 11.26701 80.13086 21.94987 -4.372349 -0 0 26.69936 -25.58126 13.86308 13.53656 4.471065 -13.52029 -2.856821 -93.43811 21.80395 25.76333 0 0 -10.5077 -3.135438 6.984013 16.50508
35.98888 99.61774 261.9403 2.629636 -8.598546 -4.52566 -2.184321 22.36641 7.224071 -0 27.30886 -0 8.683796 -11.99697 -0.5595273 -3.248821 -21.77893 -7.905017 -0 26.03884 -0 -7.433132 -6.88666 19.07919 -2.196114 -1.344404 9.579199 -2.042687 9.296513 -2.022272 2.672662 22.02823 5.061456 1.458926 -14.56785 7.635171 1.467477 -20.75941 10.95549 80.73833 21.92082 -4.841669 -0 0 25.74778 -25.34436 13.77879 13.28799 4.268177 -13.08914 -2.930862 -93.03744 22.21775 25.2826 0 0 -9.891537 -3.249638 7.087675 16.75199
36.83329 100.026 268.9385 2.832587 -8.853423 -4.048267 -2.644787 19.96786 6.514989 -0 34.04252 -0 8.985186 -10.24008 -1.55944 -4.499644 -18.02733 -8.876056 -0 25.78695 -0 -7.283243 -7.70062 18.49853 -2.536104 -1.493167 9.063107 -2.030941 9.101199 -2.175042 2.683505 22.30662 5.108757 1.277616 -14.41943 7.883937 1.703129 -19.90594 10.69979 81.64589 22.09661 -5.857019 -0 0 24.11532 -24.91011 13.76825 12.85556 4.092906 -13.01331 -3.066673 -92.21509 22.70192 24.04535 0 0 -9.82361 -3.191156 7.283622 16.76064
37.6426 100.8253 275.687 2.987306 -9.222412 -3.2555 -2.806712 16.2154 5.626127 -0 40.31677 -0 9.029021 -8.725147 -2.788434 -5.537457 -13.48217 -9.624725 -0 25.50552 -0 -7.09132 -8.761694 17.88016 -2.81538 -1.406304 8.30146 -1.935598 8.980636 -2.456247 2.643598 22.67497 5.190604 1.072411 -14.20291 8.139493 1.989462 -18.89469 10.48466 82.79483 22.42534 -7.2798 -0 0 22.05033 -24.30468 13.80585 12.29796 3.984013 -13.27728 -3.258718 -91.00186 23.21847 22.07954 0 0 -10.32037 -2.952765 7.573803 16.51151
38.4054 101.8697 282.0829 3.059666 -9.574474 -2.199526 -2.699845 11.27332 4.670701 -0 44.88703 -0 8.797348 -7.698961 -4.0428 -6.23464 -8.475529 -10.14388 -0 24.78812 -0 -6.912839 -9.958449 17.21769 -2.989861 -1.126116 7.307315 -1.752917 8.874831 -2.90278 2.577283 23.09434 5.294383 0.8571641 -13.9244 8.402207 2.192558 -17.82761 10.26679 84.11156 22.83423 -8.953482 -0 0 19.87148 -23.56998 13.85313 11.69319 3.985365 -13.81812 -3.500411 -89.47807 23.71726 19.47182 0 0 -11.34852 -2.542241 7.95279 16.00813
39.11385 102.9518 288.11 3.05062 -9.809316 -0.9649977 -2.422058 5.456525 3.764999 -0 46.95702 -0 8.284097 -7.22666 -5.188231 -6.578083 -3.299887 -10.48359 -0 23.5074 -0 -6.780877 -11.20944 16.50397 -3.06099 -0.7294445 6.139612 -1.488594 8.736799 -3.517391 2.515733 23.52194 5.396933 0.6509659 -13.60321 8.663494 2.226922 -16.76245 10.01361 85.51877 23.25811 -10.76292 -0 0 17.78552 -22.74698 13.87834 11.08831 4.123181 -14.56537 -3.773912 -87.74057 24.15093 16.35257 0 0 -12.83894 -1.978807 8.408855 15.26937
39.75738 103.8562 293.8354 3.019902 -9.852391 0.366191 -2.147097 -0.6931397 3.007463 -0 46.18777 -0 7.506739 -7.168294 -6.176285 -6.662323 1.754843 -10.71087 -0 21.85321 -0 -6.697245 -12.49727 15.7384 -3.096368 -0.3268599 4.924847 -1.161666 8.533196 -4.253216 2.502809 23.9032 5.454495 0.482571 -13.28065 8.896484 2.059364 -15.70235 9.703059 86.9198 23.63637 -12.63651 -0 0 15.86173 -21.8743 13.85338 10.48651 4.412028 -15.44646 -4.041296 -85.90026 24.48511 12.9055 0 0 -14.69432 -1.291963 8.927929 14.32104
40.32434 104.396 299.3884 3.033162 -9.656087 1.719837 -2.020223 -6.597861 2.436914 -0 42.60246 -0 6.50309 -7.32876 -7.002637 -6.605984 6.438657 -10.87166 -0 20.1476 -0 -6.652813 -13.82338 14.93058 -3.178548 -0.01808482 3.802454 -0.7969203 8.245981 -5.038637 2.577078 24.18898 5.423503 0.3787868 -13.00278 9.069956 1.697865 -14.63091 9.330875 88.22049 23.92561 -14.51937 -0 0 14.0949 -20.98186 13.75812 9.869956 4.851613 -16.39508 -4.259505 -84.06644 24.70476 9.33131 0 0 -16.80038 -0.513333 9.494685 13.19524
40.80458 104.4581 304.9049 3.097163 -9.248914 3.019841 -2.03813 -11.87488 2.010853 -0 36.85257 -0 5.326862 -7.620306 -7.687842 -6.48002 10.62261 -10.97683 -0 18.72504 -0 -6.647656 -15.14038 14.11631 -3.327103 0.1719306 2.858502 -0.4197244 7.889123 -5.785131 2.73669 24.36645 5.294769 0.3437931 -12.80178 9.166187 1.218808 -13.55191 8.941937 89.36931 24.12289 -16.34641 -0 0 12.43233 -20.07362 13.59585 9.213553 5.39743 -17.36138 -4.398562 -82.33747 24.81167 5.824699 0 0 -19.0042 0.3289405 10.08917 11.94389
41.1878 104.0564 310.4846 3.175091 -8.734492 4.186472 -2.072887 -16.2511 1.651984 -0 30.20315 -0 4.043922 -8.061806 -8.268245 -6.313529 14.25024 -11.01186 -0 17.99006 -0 -6.691636 -16.33278 13.36389 -3.494993 0.2783346 2.142864 -0.05679439 7.506623 -6.375533 2.942277 24.45311 5.088987 0.3622963 -12.70384 9.176204 0.7652314 -12.49563 8.629077 90.34483 24.25735 -18.02673 -0 0 10.78248 -19.12684 13.38929 8.481466 5.95673 -18.29933 -4.437285 -80.81799 24.82332 2.608567 0 0 -21.08802 1.204718 10.68751 10.64505
41.4621 103.316 316.1926 3.221038 -8.224943 5.149418 -1.983426 -19.55243 1.337781 -0 23.85776 -0 2.715994 -8.658533 -8.77235 -6.105042 17.28916 -10.96851 -0 18.26733 -0 -6.790144 -17.2652 12.74485 -3.618505 0.3353359 1.662244 0.2735312 7.146211 -6.73411 3.153413 24.47997 4.833056 0.4165326 -12.71818 9.100065 0.448314 -11.50075 8.457756 91.14223 24.362 -19.47791 -0 0 9.098458 -18.12697 13.15904 7.661644 6.443135 -19.1565 -4.370728 -79.59619 24.77566 -0.1227883 0 0 -22.84704 2.078917 11.26914 9.378079
41.61866 102.4215 322.0861 3.178625 -7.820566 5.874014 -1.641493 -21.639 1.166443 -0 18.76487 -0 1.407506 -9.295791 -9.193442 -5.805162 19.66818 -10.87119 -0 19.7951 -0 -6.942146 -17.75652 12.34149 -3.630927 0.3354885 1.362089 0.5625604 6.853001 -6.873457 3.347558 24.49312 4.548502 0.4957436 -12.82551 8.947586 0.2964449 -10.61124 8.423395 91.76202 24.45761 -20.62136 -0 0 7.453992 -17.09313 12.91401 6.799859 6.794374 -19.84138 -4.215154 -78.76858 24.72505 -2.183915 0 0 -24.07958 2.896214 11.81702 8.229997
41.65858 101.5844 328.2256 2.99138 -7.617306 6.376807 -0.9320745 -22.35917 1.297729 -0 15.70796 -0 0.1890333 -9.789329 -9.492401 -5.33721 21.26011 -10.76504 -0 22.77906 -0 -7.139871 -17.59799 12.25277 -3.468003 0.249042 1.15798 0.8048874 6.671413 -6.856835 3.514399 24.5488 4.252221 0.5946077 -12.98892 8.733433 0.2907248 -9.87887 8.481785 92.19879 24.55637 -21.36969 -0 0 6.00423 -16.06853 12.65726 5.980606 6.959385 -20.23519 -4.000398 -78.44536 24.73773 -3.381484 0 0 -24.57198 3.583386 12.31781 7.298009
41.59647 100.9994 334.6415 2.667163 -7.673549 6.695278 0.1268909 -21.67651 1.758892 -0 14.79546 -0 -0.9014005 -10.08644 -9.635598 -4.706487 21.91085 -10.66157 -0 27.19604 -0 -7.34609 -16.75398 12.54744 -3.13202 0.09427273 1.020187 0.9976724 6.62623 -6.73329 3.652439 24.68264 3.955566 0.7109163 -13.17326 8.472664 0.3999963 -9.357873 8.596382 92.42519 24.66749 -21.66036 -0 0 4.8778 -15.10776 12.38693 5.279278 6.920536 -20.28832 -3.761366 -78.66654 24.85061 -3.642103 0 0 -24.22615 4.086566 12.76799 6.63947
41.46467 100.7863 341.2656 2.301191 -8.025152 6.834998 1.337414 -19.65839 2.388226 -0 15.29932 -0 -1.867646 -10.3428 -9.606426 -4.05784 21.3415 -10.50771 -0 32.75441 -0 -7.469746 -15.4206 13.27899 -2.719017 -0.0201957 1.010197 1.137458 6.727473 -6.515902 3.765808 24.91062 3.667402 0.8455356 -13.34307 8.180995 0.5904598 -9.13314 8.751862 92.36289 24.80068 -21.42595 -0 0 4.184958 -14.29387 12.09191 4.771097 6.69346 -20.0353 -3.54217 -79.40964 25.0597 -3.00625 0 0 -23.04913 4.365228 13.16959 6.276282
41.30543 100.9707 347.9224 2.002437 -8.670942 6.752785 2.45613 -16.44635 2.972993 -0 16.22689 -0 -2.729349 -10.76591 -9.402908 -3.564324 19.29343 -10.23791 -0 38.97716 -0 -7.423872 -13.8714 14.4573 -2.3505 0.02932234 1.210225 1.218639 6.967291 -6.199989 3.859257 25.23136 3.39676 0.9994831 -13.47095 7.874383 0.8275925 -9.28213 8.943731 91.93306 24.95836 -20.61578 -0 0 4.007303 -13.713 11.76122 4.521766 6.316476 -19.549 -3.378989 -80.62373 25.32874 -1.572347 0 0 -21.11681 4.397942 13.52543 6.202641
